<svg width="249" height="249" viewBox="0 0 249 249" fill="none" xmlns="http://www.w3.org/2000/svg">
<path d="M215.518 149.496C215.492 147.727 215.545 146.09 214.957 144.32L214.663 119.159C213.646 116.343 214.608 113.526 213.939 110.736L213.752 97.4051C213.618 96.2517 213.191 95.2859 212.923 94.2124C212.817 89.8675 212.977 85.79 211.933 81.7392C211.291 78.9228 211.88 76.0266 211.506 73.1292C210.97 71.8414 210.73 70.527 210.382 69.1049C210.275 67.2012 210.622 65.4305 210.008 63.7942C209.179 61.1388 209.285 58.5367 209.366 55.3718C207.921 54.5936 207.626 53.4934 207.279 52.179C206.878 49.98 207.225 47.7264 207.065 45.3131C206.236 43.0063 205.62 40.7261 205.968 38.1772C205.138 35.8704 204.791 33.6181 204.711 31.1504C204.604 29.5407 204.523 28.1185 203.801 26.6964C203.935 24.2565 203.801 22.0828 202.919 20.0181C202.383 19.16 202.651 18.1131 202.571 16.9863C202.597 16.1827 202.329 15.5109 201.661 15.914C200.992 16.5312 200.242 16.4235 199.868 15.7264L195.99 15.6719L194.197 14.3854C192.699 14.9748 191.549 14.412 190.826 13.0977C189.275 13.3651 187.776 13.3385 186.171 12.3727C184.86 12.3727 184.646 13.7681 186.037 14.0356C186.466 14.4653 186.332 15.0014 186.198 15.5388C184.807 15.753 183.523 15.753 181.864 15.6187C180.661 16.1016 180.259 17.1751 180.768 18.2474C182.025 18.596 183.148 18.7037 184.567 18.6226C185.61 19.1321 186.466 19.9104 187.563 20.0713C188.953 20.7152 187.937 21.0637 186.947 20.9294C186.037 21.52 185.102 21.0371 183.925 20.8496C182.48 20.6353 181.463 19.6695 179.992 20.0447C179.484 20.2057 179.082 20.1524 178.841 20.5276C178.841 20.6353 178.975 20.9839 179.323 21.6278C180.232 22.003 181.008 21.8952 182.051 21.7609C183.014 22.5391 183.925 22.9143 185.155 22.9688C186.278 23.0752 187.215 23.1564 187.83 24.0677C189.087 24.0677 190.104 24.0677 191.307 24.3098C191.362 25.3288 191.843 25.5709 192.805 25.2756C193.876 25.0069 194.679 25.3554 195.187 26.268C195.427 26.4556 195.669 26.5899 195.99 26.6166C196.604 26.8041 196.685 27.2605 196.604 27.3948C196.39 27.8777 195.963 27.9842 195.508 27.6622C194.919 27.1793 194.303 26.9917 193.447 26.8574C192.966 26.8574 192.726 26.6432 192.191 26.7509C191.575 25.5975 190.345 25.4366 188.98 25.8117C188.151 25.5975 187.723 25.1146 187.161 24.4441C185.342 24.6317 183.897 24.2286 182.372 23.586C181.49 23.5049 180.607 23.586 179.59 23.2907C179.029 22.6468 178.494 22.0828 178.065 22.3781C177.423 22.4592 176.996 22.5657 176.514 23.3972C177.049 24.0677 177.263 24.4974 177.45 25.5164C177.102 25.3022 176.728 25.3288 176.193 25.6774C175.551 25.6774 175.203 25.9194 174.99 26.2946C175.069 26.5633 175.256 26.8853 175.524 27.2072C176.112 27.4214 176.594 27.5824 176.862 28.7624C177.986 28.7092 178.681 28.8968 179.724 29.0577C179.884 29.5407 179.937 30.13 179.75 30.855C178.815 31.177 177.986 31.177 177.075 30.855L176.835 29.0577C175.551 28.7624 174.748 29.0045 173.651 29.2986C173.892 30.5331 173.303 31.2834 171.939 31.4178C171.484 31.9539 171.404 32.3836 171.671 32.7866C171.832 33.0009 172.287 33.1073 172.929 33.0807C174.962 33.0807 176.675 32.9197 178.52 33.2417C178.788 33.9401 179.269 34.1277 180.126 34.6904C182.293 34.1277 184.272 33.8057 186.519 34.4496C187.242 35.039 187.937 35.7095 189.221 36.0048C190.585 35.8172 190.665 34.3152 188.953 34.878C187.91 34.3951 187.268 33.0275 185.636 33.698C185.128 33.1352 184.726 32.518 183.897 32.3836C182.64 32.4368 181.569 32.6789 180.58 31.7131C182.105 30.291 184.191 30.3987 185.557 32.0351C187.134 31.5521 187.937 32.4647 188.846 33.1885C190.505 32.4647 191.575 33.1352 192.11 34.4496C192.805 34.2341 193.126 34.3418 193.715 34.5028C193.715 34.5028 193.581 34.8514 193.769 35.3875L192.271 36.944C192.03 37.3458 191.815 37.3458 191.441 37.0783L188.659 36.5954C187.964 36.2469 187.563 35.7095 187.187 35.3077C184.78 36.0859 182.827 36.058 180.714 35.3077C180.045 35.4686 179.484 35.9249 179.163 34.7436L171.671 34.5827C170.709 34.6372 170.013 35.2544 169.88 36.058C170.949 36.6753 171.832 36.5409 172.982 36.4611C174.026 36.4611 174.909 36.8895 174.722 37.6943C173.384 37.9364 172.368 38.1506 171.19 37.6943C170.494 37.3458 169.986 37.9364 169.799 38.6335C170.521 38.7413 170.896 38.8756 171.297 39.2508C171.645 39.6526 171.538 39.9479 171.002 40.2698H168.569C168.301 40.9936 168.435 41.6374 167.819 42.2813C168.061 43.0595 168.649 43.4614 169.504 43.6223C169.425 44.2941 169.665 44.6147 170.093 44.6426C170.549 44.9646 171.03 44.9912 171.511 44.5083C173.036 44.2941 174.614 44.1052 176.059 44.9646C177.183 45.6084 178.494 45.5806 179.644 46.573H184.62C185.236 47.0293 185.529 47.7543 186.358 47.9685C187.376 47.5933 188.177 47.4856 189.195 47.7543C190.719 47.8075 190.719 49.3361 189.301 49.1219C187.696 49.4704 186.412 49.4704 185.396 48.2638C183.389 48.1561 181.864 48.0483 179.937 48.2638C178.841 47.3246 177.718 46.734 176.193 47.0027C175.283 46.8949 174.427 47.0027 173.651 46.1978C172.234 46.0635 171.136 45.6351 169.719 45.3397C168.809 44.4005 167.685 44.5349 166.963 45.6084C166.561 46.0901 166.321 47.0027 167.285 47.9685C168.783 47.6465 170.227 47.4045 171.511 48.1295C171.913 49.0687 172.822 48.7188 173.679 48.9077C175.47 49.0141 177.477 48.3437 179.108 49.9534C180.982 50.3285 183.041 49.9267 184.994 50.0611C185.236 50.5161 185.449 50.6771 185.61 50.7848C185.689 51.1334 185.61 51.5631 185.181 51.3755C183.202 51.5631 181.409 51.7506 179.59 51.5085C179.002 50.383 177.986 50.0877 176.915 50.4096C175.551 50.7848 174.266 50.5161 173.063 49.5516C171.699 49.4438 170.842 49.0687 169.799 49.4172C168.541 49.6048 167.659 49.3361 166.669 48.2093C165.706 48.7188 165.679 49.3361 166.242 50.0877C166.669 50.4096 166.937 50.6771 167.338 51.3476C169.077 51.0802 170.655 50.8114 172.179 51.4287C173.384 52.1791 174.748 52.3945 176.112 52.4211C177.477 52.1524 178.628 52.7697 178.895 54.245L181.035 54.8078C181.276 54.8889 181.142 55.3985 181.116 55.8281C180.927 55.6938 180.607 55.8813 180.071 55.9625C178.494 56.1501 177.102 56.2565 176.032 54.9967C174.534 55.2109 173.679 54.1652 173.518 52.7165C170.923 52.7963 169.504 52.7963 167.793 52.6087C167.419 51.724 166.776 51.4287 166.268 51.4021C165.572 51.4819 165.063 51.8584 164.663 52.5555L164.476 55.2375C165.519 55.4796 166.482 55.908 167.846 55.8281C168.515 55.586 168.862 56.2831 169.37 57.1425C170.521 56.927 171.645 56.633 172.956 56.7661C174.534 56.4986 175.685 57.3034 176.701 58.4302C178.547 57.6254 180.126 57.7864 181.65 58.3225C182.346 59.1806 183.068 59.6901 184.272 59.4759C185.262 58.993 186.144 59.0462 187 59.4493C186.947 60.1464 186.866 60.3606 186.358 60.6027C185.583 60.6826 184.887 60.8435 184.246 60.1464C183.309 60.4683 182.64 60.1464 181.971 59.2617C180.071 59.5558 178.573 59.6901 177.049 59.3149L175.524 58.0272C172.982 58.6977 170.655 58.6977 168.569 57.491C168.167 56.7939 167.551 56.472 166.856 56.9004C166.722 56.9004 166.508 57.3833 165.572 57.5176C165.278 58.2959 166.161 58.993 167.177 59.2617C168.435 58.7243 169.691 58.6711 170.415 60.3606C171.939 60.2263 173.277 59.9854 174.614 60.4151C175.203 61.2466 176.273 61.0311 177.022 61.8626C178.386 62.694 179.75 62.4 181.061 62.5064C181.945 63.9552 183.443 64.0363 184.994 63.4989C186.171 64.1427 186.519 64.76 186.171 65.5915C185.931 66.1276 185.289 66.2087 184.406 66.2087C183.657 66.7449 183.256 66.0744 182.533 65.8336C181.703 65.6447 182.078 64.8133 181.945 63.8475C180.366 63.9286 179.35 64.1694 178.146 63.8475C177.799 63.2581 177.45 62.8284 176.781 62.6408C175.498 63.1237 174.508 62.8018 173.624 61.7561C171.939 62.0514 170.681 61.675 169.746 60.3872C168.354 60.9246 167.177 60.8701 166.321 59.3415C165.091 59.5291 164.047 59.5836 162.79 59.5558C162.362 60.6293 162.254 61.5951 163.084 62.4C164.423 62.4 165.305 62.3455 166.348 62.4532C167.285 63.6332 168.729 64.0629 170.307 63.419C171.191 64.3303 171.939 64.4381 172.902 63.8475C173.598 64.1428 173.732 64.599 173.518 64.9742C173.358 65.3773 172.929 65.4571 172.02 65.1352C171.484 65.2429 171.404 65.7791 170.923 65.8336C169.559 66.2354 168.461 66.5041 167.74 65.4305C168.006 64.5458 167.872 64.1427 167.097 63.7942C165.197 64.0895 163.486 64.3304 161.933 63.3379C161.265 63.6865 161.185 64.1973 161.346 64.8944C161.372 65.1352 161.801 65.5915 162.602 65.6726C163.299 65.7259 163.699 65.9946 163.913 66.4762C164.315 66.6917 164.315 66.9325 163.86 67.0668C162.602 67.5763 161.372 67.8717 160.435 66.7715C159.954 66.3963 159.473 66.6917 159.446 66.8793C159.258 67.4154 159.526 67.7906 160.142 67.8717C161.051 67.7373 161.425 68.328 161.988 69.2659C163.138 69.2659 164.101 69.0251 164.984 69.4547C165.76 70.3661 166.776 70.5004 167.712 71.3851C168.649 71.3053 169.291 71.4663 169.772 72.5119C171.083 72.5385 172.126 72.4853 173.705 72.3509C174.427 73.4245 175.283 74.3092 176.728 73.6387C177.183 73.8263 177.183 74.1482 177.289 74.6045C176.193 74.8732 175.443 75.1673 174.722 74.0139C173.384 73.8263 172.313 73.9074 170.736 74.1216C170.12 73.2901 169.264 72.4321 167.74 73.1558C166.99 72.5385 166.669 71.9225 165.866 71.6538C164.155 71.9225 162.683 71.3851 161.827 69.669C160.811 69.4548 159.901 69.6157 158.563 69.4547C157.76 70.1785 157.279 70.7691 156.583 71.6538C156.984 72.351 157.413 72.6196 157.305 73.2901C157.226 73.3167 156.958 73.531 156.583 74.0405C155.326 73.9606 155.193 75.0874 156.53 75.3016C156.744 75.8378 156.262 75.9721 155.567 76.1331C154.685 76.1597 154.096 76.3752 153.587 77.0457C154.23 78.3601 155.246 79.2181 156.931 79.4323C157.439 80.3449 158.295 80.7467 159.392 80.3183C160.409 80.3982 161.265 80.3183 161.933 80.6935C162.522 81.4172 163.433 81.5782 164.502 81.6859C166.081 80.9077 167.285 81.6327 168.248 82.8393C169.638 82.3032 170.549 82.544 171.27 83.4299C170.762 83.9395 170.013 84.2614 168.996 84.3679C167.659 85.6823 165.84 85.7634 164.476 84.5555L162.522 84.6898C161.319 83.5631 159.687 83.3755 158.484 84.5022C159.179 85.4148 160.035 85.1461 160.998 85.79C161.612 86.5403 160.783 86.5404 160.008 86.2463C158.671 86.6481 157.573 86.4871 156.236 86.4072C156.049 86.9966 156.315 87.3186 156.984 87.0778C157.654 88.2578 158.671 88.6596 159.982 88.3921C161.907 88.0702 163.138 88.9016 163.486 90.8333C164.262 90.8054 164.368 91.1007 163.886 91.4227C163.352 91.4227 162.923 91.5836 162.763 91.1007C161.801 90.4835 160.998 91.2883 160.061 92.0399C159.018 91.6102 158.59 91.0475 157.868 90.377C156.691 90.9132 155.486 91.1274 154.309 90.377C154.496 89.3035 153.988 88.6596 152.945 88.633C151.687 88.633 150.51 88.5531 149.602 87.7749C147.728 87.7749 145.909 87.4263 144.09 86.3261C143.181 86.3806 142.646 86.4871 142.11 87.0511C140.96 86.7013 140.238 87.0778 139.488 87.695C137.429 87.5341 135.61 87.9625 133.87 87.4263C133.096 86.8623 132.212 86.8357 131.089 86.4605L126.327 81.8203C126.301 80.4248 125.043 80.0762 124.133 79.6744L123.197 76.7237C122.742 75.5158 122.502 74.3358 121.673 73.0481C121.592 72.2445 121.484 71.6272 120.655 71.2508C120.575 70.3927 120.655 69.5346 119.854 68.9985C119.586 67.9249 119.13 66.9591 118.328 66.0212C118.462 64.8944 118.382 64.0629 118.167 63.2048C117.445 62.1579 116.911 61.0045 117.151 59.4227C116.108 57.8396 116.134 56.1501 115.947 54.3794C115.947 52.9573 115.6 51.8039 115.091 50.5706C115.037 47.9419 115.145 45.5273 114.155 43.1939C113.62 41.0747 114.021 38.7945 113.78 36.3533C113.968 35.1201 113.112 34.3418 112.041 34.262C111.559 33.0541 111.453 31.9539 111.533 30.5863C111.587 29.675 111.453 28.95 110.784 28.4138C110.543 27.0462 110.57 25.6241 109.874 24.2565C109.206 23.5315 109.286 22.6202 109.447 21.5466C108.082 20.2323 108.108 18.5427 107.895 16.9863C107.118 16.075 107.173 14.8949 106.075 14.412C105.22 14.573 104.47 14.5996 104.069 13.9291C103.588 13.554 103.988 13.3118 104.337 12.6414C103.909 11.9442 103.48 11.9709 103.427 12.0241C102.919 12.2928 103.079 12.6946 102.945 13.232L100.939 13.3651C99.6283 13.8214 98.6385 13.1243 97.4881 12.4272C95.9901 12.5615 96.0166 14.009 97.5146 13.9557C98.3174 13.9824 98.5854 14.6262 98.7725 14.9482C98.0228 15.9672 96.9533 15.9672 95.8295 15.5388C94.9471 14.8683 94.0369 15.6187 95.0002 16.3969C95.937 16.4768 96.4186 16.7455 96.6057 17.1473C97.1404 17.4971 96.9533 18.1131 96.7662 18.7303C96.0431 18.9179 95.3744 18.9179 94.492 18.9712C93.6362 18.757 93.0206 18.9712 93.1811 20.098C93.0737 19.9915 93.2342 20.2855 93.5818 20.5276C92.6198 21.0371 91.6831 21.1981 90.9334 22.1639C90.6667 23.0752 90.1585 23.747 89.2483 23.9878C88.3394 24.3098 88.1523 25.3022 89.1952 25.4632C90.0511 25.4632 90.5593 25.7319 91.2823 25.4632C91.9233 25.41 92.2987 25.5975 92.6995 25.9727C93.3682 26.268 93.2886 26.7509 92.5655 26.7243C91.5756 26.7243 90.9069 26.7509 90.0511 26.5899C88.9816 27.0729 88.6061 26.3212 88.0979 25.6507C86.8414 26.7243 87.4292 27.6356 87.8578 28.5748C87.9639 29.4063 88.7667 29.675 89.73 29.3531C89.73 29.4329 90.0511 29.0311 90.5593 28.7092C91.5225 28.7092 91.8702 29.0045 92.0838 29.3797C92.6464 29.7549 92.4593 30.3721 92.2987 30.9894C91.228 31.2834 90.1042 31.4989 89.3027 30.6129C88.285 30.8816 87.9917 30.4253 87.9917 29.111C87.0019 28.6826 86.4659 29.1655 86.1726 29.6471C86.0652 30.1034 86.0652 30.5863 86.1448 31.2302C85.7706 32.0883 86.0652 32.7867 86.8679 32.357C87.8843 31.9818 88.9007 31.8475 89.8374 32.0617C90.2647 32.6523 90.6402 32.9742 90.1585 33.1352C89.8905 33.7791 89.4354 33.8323 88.7667 33.4292C87.5632 33.9122 86.8414 33.6714 86.0652 32.3304C85.0223 32.6789 84.8339 33.5104 85.155 33.8856C85.6101 34.3418 86.0917 34.6371 86.8679 34.101C87.9374 34.556 88.8741 34.5028 90.0776 34.3152C90.9612 34.6372 91.3885 34.0465 91.4694 33.5104C92.0573 33.376 92.2722 33.1073 92.86 33.2683C92.9675 33.2683 93.262 33.5104 93.1811 34.0732C93.3417 34.3152 93.1811 34.5826 92.5389 34.9046C91.7905 34.9046 91.228 35.0656 90.8007 35.7094C88.5265 36.2735 86.5999 35.8172 84.3801 35.7361C84.2992 37.0238 83.657 37.9098 82.7215 38.7945C82.9351 39.9479 83.2562 40.3231 84.2726 40.19C85.1284 40.19 85.9046 40.1621 86.2788 40.806C86.8679 41.1824 86.787 41.6653 86.3597 42.3079C85.2624 42.389 84.193 42.5766 83.0691 42.389C82.4004 41.9061 82.0522 42.6578 82.3465 43.4613C83.8719 43.5691 83.8175 44.5349 82.6406 44.8302C81.651 44.6693 81.116 44.8302 80.7683 45.393C80.5809 45.5007 80.4472 45.8226 80.5542 46.5464C80.7949 46.6807 81.1427 46.5464 81.6242 46.9216C83.3637 46.6009 84.7012 46.6009 86.3597 46.8151C86.8945 47.1104 87.323 47.6732 87.9374 47.137C88.0979 47.137 88.4456 46.8417 88.0979 46.0635C86.8414 46.0102 86.1726 45.7415 85.9312 44.9646C87.189 44.1597 88.1789 44.5881 89.5429 44.7491C90.6667 45.1521 91.6565 45.6617 92.6995 45.8759C92.6464 47.0027 92.3784 47.2714 91.4694 47.2435C90.5327 47.3246 89.7831 47.298 88.8476 47.2169C87.055 48.3703 85.1828 48.1561 82.9882 48.3437C82.4269 48.1029 82.0256 47.4856 81.437 47.6199C80.9287 47.6998 80.2866 47.7543 79.9924 48.3437C80.9555 49.1751 81.8918 49.3361 83.1222 49.2829C83.3637 50.6771 82.7746 50.5972 81.8116 50.0877L79.2701 50.8647C79.6981 51.8584 80.3134 51.6974 81.2498 51.9649C80.9555 52.7963 80.474 52.2602 79.9122 52.0992C79.3771 52.8508 78.7618 52.6899 77.986 52.8508C77.2904 52.8774 76.6216 52.8774 76.5414 53.6823L75.0967 57.5443C76.4075 58.1349 77.0229 58.0538 78.1465 57.8396C78.8153 57.3034 78.3337 56.9549 77.879 56.1767C78.8955 55.2375 79.9924 55.5062 81.33 55.6938C81.9185 56.0423 81.865 56.6596 81.223 57.1957C80.5274 57.3833 80.474 57.6786 81.1962 58.0538C81.7045 58.0538 81.9988 57.7319 82.4004 57.491C82.6406 57.2489 82.8542 57.088 83.2031 56.9004C83.6039 56.7939 83.925 56.766 84.4597 56.6862C84.9148 56.7394 85.1284 56.927 85.5039 57.1159C85.691 57.4644 85.691 57.7864 85.4761 58.1083C85.1019 58.2148 84.8617 58.3225 84.6203 58.4302C84.3801 58.4569 84.1386 58.5101 83.8175 58.6444L82.6406 58.9119C82.427 59.0196 82.186 59.1274 81.8918 59.3948L74.1872 59.4493C74.1337 60.2808 74.8025 60.3872 75.4713 60.4151L79.1898 60.3606C79.377 60.6559 79.5911 60.7637 79.8586 60.8435C81.437 61.0045 82.8542 61.0577 84.4066 61.6484C84.6203 62.5876 84.0855 62.9095 83.2031 63.0705C81.8382 62.9361 80.6612 62.6674 79.3236 62.6674C77.2102 61.836 75.0433 61.4608 72.9299 62.1047C72.9299 63.2581 72.7425 63.9552 71.9132 64.6523C71.9132 65.6992 71.4852 66.3431 71.5923 67.281C73.0904 67.5497 74.0534 66.8526 75.498 66.8793C76.3541 67.442 77.0496 67.764 78.093 67.442C78.5478 67.764 78.4408 68.006 77.9592 68.1936C76.0331 68.8641 74.214 68.6765 72.3413 67.8185C71.5923 68.006 71.0571 67.7373 70.977 68.1936C70.7094 68.6499 70.8967 69.1594 71.6189 69.347C72.8764 69.2127 74.1069 68.9439 74.9095 69.7767C75.7656 70.6348 76.9427 70.3927 78.1732 70.4472C78.6815 70.849 78.6815 71.2787 78.0663 71.6538C76.5413 71.9225 75.1236 71.7882 73.786 71.4117C72.6088 70.527 71.298 70.3128 69.8533 70.527L69.4521 72.5664C68.3553 72.8605 68.3017 73.8795 68.1947 74.7123C67.1514 75.6768 66.8839 76.8581 67.8202 78.4399L70.4151 78.2523C71.3248 79.0572 72.261 79.3525 73.4649 79.862C72.9031 81.0686 71.2712 81.203 70.2012 80.3183C69.0508 79.7809 68.1679 79.1915 67.2317 78.5476L65.3323 79.0572C64.9577 80.0496 65.4126 80.4793 66.5362 80.2904C67.2049 80.5059 67.0711 81.203 67.0177 81.6859C66.8839 81.9546 66.4826 82.0079 65.8941 82.0345C64.7972 81.8469 64.2354 82.2221 64.5832 83.5098C64.0748 84.1271 63.4061 84.449 62.8978 85.3071C63.0315 85.9244 63.2189 86.2995 63.0851 86.7824C63.0315 86.9434 62.6838 87.1044 62.122 87.3731C62.2557 88.2844 62.8443 88.7407 63.7004 88.7939C63.8609 89.4378 64.0748 90.0551 63.4596 90.4036C63.2724 90.7256 62.8978 91.1274 61.9882 90.9943C60.9449 91.4227 60.3831 92.4417 61.2124 93.0856C62.1488 92.8182 62.6303 93.0324 63.299 93.3543C64.4762 93.059 65.359 92.7637 66.6431 92.6306C67.2317 92.6027 66.8303 92.2541 66.2953 91.9322C65.8138 91.396 65.2787 91.9322 64.5297 91.5304C65.4927 90.4835 66.8037 90.4568 68.4355 90.4835C68.9973 90.6723 69.1043 91.0209 68.9973 91.4227C68.9171 91.557 68.703 91.7712 68.489 92.2541C69.5858 92.8714 70.6559 92.5494 71.5923 91.7446C72.5553 91.7978 73.2508 91.5304 73.7323 92.3619C73.9197 92.5761 73.9197 93.2466 73.3846 94.078L67.1514 94.6687C65.1986 93.9449 63.4061 93.8372 61.1589 93.7561C60.5169 93.8904 60.6238 94.6953 61.3195 94.964C63.1921 94.803 64.7169 95.4735 66.5896 95.0172C68.1947 95.6611 69.8266 95.9298 71.6457 96.0097C72.4484 96.0629 73.0101 96.3848 72.8764 97.1364C72.8764 97.2442 72.6356 97.5382 72.3947 97.9679C73.1974 98.1821 73.5719 98.4508 73.6789 99.0415C73.7324 99.3355 73.5451 99.7918 72.8764 100.087L63.4596 99.7652L59.313 99.1479C58.5372 99.6308 58.6175 100.409 58.778 101.428C58.0022 102.18 57.2799 103.091 57.8952 104.057L67.2317 104.138C68.3819 103.064 69.8533 102.608 71.084 103.225C71.6725 103.627 71.6725 104.218 71.0037 104.701C71.0037 105.398 71.1374 106.095 70.4687 106.498C69.024 106.284 67.9272 105.934 66.4826 106.417C65.8405 106.498 65.359 105.854 64.5832 105.828L58.8582 105.72C57.4136 105.184 56.3435 106.149 56.2633 107.705C56.076 108.456 55.9155 108.966 56.2098 109.368C56.3435 109.744 56.8251 110.307 57.5474 109.824L62.015 109.69C63.3793 109.583 64.4494 110.36 66.001 109.851C66.6966 109.985 67.6597 110.79 68.81 109.69C69.5323 110.441 69.1578 111.165 67.9539 110.71C67.1246 110.682 66.5628 111.085 65.8405 110.816C63.9144 111.326 62.0685 111.541 60.0888 110.951C58.7512 111.085 57.6009 111.112 56.2901 110.736C55.7551 111.138 55.6748 111.407 56.076 111.782C56.3169 111.996 56.5576 112.184 56.8786 112.265C57.8149 112.131 58.1092 112.667 58.564 113.231C58.2429 113.579 57.9754 114.25 57.0391 114.303C55.9423 114.062 55.1397 114.384 55.0059 115.35C55.4874 115.725 55.648 116.021 55.4608 116.369C55.3002 116.664 54.9257 116.718 54.3639 116.718C53.6417 116.718 53.1333 116.825 53.0531 116.986C52.5982 117.496 52.6518 117.952 52.8658 118.462C51.5817 119.239 51.3142 120.608 52.197 121.6C51.6352 122.083 51.5282 122.566 51.5817 122.914C51.876 123.397 52.3575 123.558 53.0799 123.558C54.2034 123.424 55.1397 123.371 55.7551 124.416C55.327 125.462 54.685 125.65 53.7218 125.57C52.7856 125.517 52.09 125.221 51.0734 125.865C51.1804 126.776 52.0098 126.857 52.4913 127.447L50.4045 128.117C49.602 128.439 49.5752 128.977 49.8161 129.46C50.0033 129.754 50.4581 129.969 51.1537 129.915C52.1167 129.754 52.839 130.183 53.9091 130.13C55.2734 130.049 55.2734 131.176 53.9091 131.015C52.4378 131.202 51.2606 131.417 49.6555 131.096C48.9332 132.142 49.1472 132.731 50.3244 132.221C50.9664 132.92 51.5817 133.161 50.5651 133.723C49.8964 133.187 49.5218 132.543 48.7728 133.403C48.6925 133.295 48.4517 133.912 49.0403 134.367C49.3346 135.119 49.7626 134.797 50.6186 134.85C50.3779 135.655 49.7893 135.575 49.2008 135.575C48.3714 135.871 47.7829 136.193 47.9167 136.996C47.8096 137.587 48.4517 137.855 49.1472 138.338L53.8021 139.303C55.0327 138.793 56.2366 138.901 57.0659 139.679C56.1831 140.189 55.7283 140.054 55.0327 140.672C54.2034 139.733 53.3474 139.92 52.5715 140.376C50.8594 140.376 49.5486 140.484 48.0772 139.759C47.3816 140.054 47.1141 140.456 47.3014 140.886C47.4084 141.289 47.9167 141.503 48.6122 141.261C49.8964 141.128 51.0199 142.039 52.3307 141.53C53.7218 140.725 54.9793 141.771 56.3169 141.181C58.4569 141.717 60.3297 141.181 61.9882 139.814C62.8175 139.975 63.2724 139.92 63.5667 140.591C63.8876 140.698 63.8876 140.967 63.3526 141.369C62.2291 141.61 61.2392 141.905 60.2226 142.469C57.5207 142.281 55.1397 142.764 52.3041 142.227C50.8862 142.2 49.4415 142.818 47.9702 142.066C47.1409 142.335 46.3651 142.657 47.1141 143.301C48.3447 143.729 49.2543 143.219 50.0301 143.702C50.8059 143.729 51.4746 143.783 50.8594 144.668C49.174 144.882 47.7027 144.615 46.1242 145.043C45.9905 145.526 46.1778 145.795 46.6326 145.982C48.2377 145.742 49.7626 145.42 51.1269 146.68C53.1868 146.814 54.9793 146.787 56.7448 147.217C57.1728 147.727 57.4939 148.155 57.2799 148.424C56.611 148.585 56.4238 149.014 55.8085 148.907C55.434 149.524 55.0594 149.363 54.3639 149.068C53.5078 149.872 52.7588 149.577 51.7957 149.308C51.1269 149.308 50.7256 148.719 49.709 149.041C48.853 147.217 46.9 146.546 45.0809 147.323L44.974 150.971C44.2248 151.321 44.0376 151.749 44.0911 152.071C44.3051 152.474 44.7332 152.581 45.3752 152.635L55.6748 152.528C56.9588 152.957 57.9486 152.715 59.5539 152.85C59.3665 153.815 58.457 153.842 57.5474 153.494C55.8888 154.244 54.2301 154.164 52.4645 153.922L47.9702 154.111C46.6326 153.815 45.4555 153.708 44.1179 154.111C43.9573 155.291 43.3421 156.068 42.1917 156.068C41.3089 157.195 41.0681 158.965 42.0312 160.2C43.9306 159.395 44.0644 161.406 42.4325 161.003C41.2287 160.897 40.6401 161.486 40.5063 162.425C40.212 162.694 40.5063 163.177 41.1484 163.74H50.5651C51.2072 163.471 51.6887 163.713 51.983 164.33C53.7218 164.706 55.4608 163.766 57.0391 164.84L42.807 165.054L39.6771 166.315C39.3025 166.825 39.1955 167.308 39.6236 167.925C39.6503 168.086 40.1586 168.353 40.8273 168.247C41.9242 167.952 42.9407 167.736 44.1179 168.139L47.3549 168.192C48.3714 167.978 48.853 168.353 48.5854 169.454L43.4224 169.507C42.5663 169.694 41.7637 169.882 40.9076 169.372C39.8376 169.266 39.0082 169.427 38.5 170.043C38.1521 170.499 38.2324 171.196 38.1789 172.029C38.4197 173.209 38.0184 174.067 37.5636 175.221C37.0285 176.052 36.8145 176.776 37.0285 177.474C37.1891 177.957 37.6706 178.412 38.6337 178.52C40.1051 178.225 39.998 180.075 38.6069 179.593C37.5368 179.593 36.6541 179.539 36.3865 180.317C35.6909 181.632 36.012 182.704 37.1088 183.537C36.8948 184.717 36.1726 185.306 35.4234 186.084C35.0222 186.728 35.584 187.158 36.3598 187.211L46.0708 187.103C47.4886 187.023 48.96 187.639 50.1638 186.459C51.2339 186.192 52.3575 187.291 52.2773 188.605L35.9317 188.766C35.6106 188.203 35.2897 188.257 35.0222 188.821C35.3432 189.571 35.6909 189.974 36.119 190.323C35.3968 190.806 34.9151 191.154 34.6744 191.825C35.4502 192.147 35.798 191.986 36.6005 192.065C37.0553 191.073 37.6974 190.429 38.6337 190.537C39.5968 190.323 40.3726 190.912 40.9344 192.039C42.4057 191.69 44.1179 191.101 45.5358 192.629C44.3051 193.783 42.9675 193.139 41.4694 193.166C40.7738 192.495 39.9714 192.415 38.7407 192.575C37.3763 192.603 37.3228 193.863 38.7407 193.917C39.8643 193.809 40.6936 193.648 41.6031 194.346C42.4057 194.292 43.2886 194.158 43.7701 195.472C45.6159 195.15 47.4618 195.124 49.2008 195.607C48.9868 196.707 49.281 197.135 49.8963 197.726C49.1205 198.531 48.532 198.798 47.6759 198.584C47.3014 198.476 46.7931 198.048 46.1242 197.618C44.9204 197.806 44.0376 197.565 43.6364 196.491C44.0376 195.66 43.5561 195.419 42.7 194.749C40.7204 195.66 38.6337 195.982 36.8413 194.694C35.798 194.561 35.0489 194.024 34.0056 193.997C33.9253 195.071 34.7279 195.365 35.6108 195.419C35.5572 196.412 35.9852 197.109 37.0553 197.323C38.0184 197.323 38.5535 197.645 38.9279 198.637C41.0147 198.262 42.807 198.315 44.5459 198.718L47.8632 200.757C48.853 199.952 49.5218 200.274 49.495 200.328C50.5116 200.783 50.6186 201.347 50.3511 202.097L48.1039 202.447C47.9434 203.251 48.1039 203.815 47.3549 204.243C46.2313 203.359 45.0809 203.305 44.2783 204.512C45.0275 205.183 46.1242 205.343 47.1141 205.103C47.6759 205.692 48.1039 205.853 47.7829 206.631C45.3752 206.711 43.0478 207.033 40.6936 206.229L36.547 206.953C36.3063 207.677 36.4401 208.347 35.798 208.616C34.6209 208.83 34.2998 209.823 34.5407 210.279C34.9954 210.87 35.6108 211.004 36.4133 210.789L39.0618 210.843C39.9446 211.192 40.9076 211.62 41.737 210.815C42.7 210.976 43.6364 211.004 44.6529 210.654C45.5358 210.44 46.3116 210.306 47.3816 210.735C48.1039 210.065 48.96 209.743 49.6823 210.36C50.0301 210.896 50.5651 211.084 50.2976 211.567C50.1906 211.836 49.8427 211.915 49.2543 212.05C47.8632 211.754 46.7663 211.836 46.2313 212.773C47.2211 213.337 48.1039 213.686 48.96 213.256C49.602 213.955 50.1906 214.249 49.3346 214.678C48.0504 213.955 47.0338 214.571 46.151 214.974C44.5459 214.786 43.6631 214.249 42.9407 213.042C41.6031 213.177 40.7472 213.444 39.7305 213.417C38.1789 212.264 36.2795 212.157 34.9419 213.739L39.6236 214.758C38.6604 215.832 37.2961 215.885 35.6374 215.644C34.8884 215.858 34.7011 216.288 34.5407 216.771C34.6744 217.065 34.9954 217.442 35.7177 217.521C36.5203 217.521 37.0553 217.924 36.9484 218.487C36.9216 218.836 36.5738 219.104 35.798 218.997C34.9419 219.131 34.5941 219.614 34.4871 219.989C34.4069 220.366 34.5407 220.714 34.7279 221.116C34.8616 221.974 35.2897 222.43 36.0923 222.029C37.1356 221.786 38.0184 222.296 38.9279 223.021C39.4897 223.155 39.8108 223.37 40.0515 223.288C40.1586 223.745 40.2388 224.12 39.998 224.603C38.2324 224.55 36.761 223.771 35.2629 222.86C34.6476 223.315 34.5673 223.906 35.0222 224.603C34.9687 224.898 35.4769 224.764 36.4133 224.845C36.226 225.676 35.5572 225.489 34.835 225.891C34.835 227.366 35.6642 227.849 36.4667 228.6C38.3127 229.002 40.0783 228.894 41.737 227.58C42.3255 227.688 43.3153 228.091 43.5293 226.749C41.523 226.534 40.1051 226.642 38.2324 226.749C37.5636 226.669 37.4299 226.105 37.6439 225.73C37.8043 225.301 38.2592 225.408 38.9547 225.354C39.6236 225.595 40.1586 225.811 40.6669 225.273C41.3891 224.442 42.3255 224.228 43.2083 224.603C44.1179 225.112 44.7866 225.784 45.4287 226.669C46.7128 226.964 47.3816 225.917 48.746 225.595C50.1104 224.335 51.5014 223.154 52.5181 221.626C52.5982 220.419 54.0429 220.633 54.4175 220.016L56.1563 215L56.9856 213.203C57.4939 212.479 57.9754 211.915 58.0824 211.137C59.3933 209.984 59.6876 208.402 59.7411 206.953C60.4366 206.363 60.2761 205.639 60.1423 204.726C61.4264 203.546 61.3996 201.937 61.7207 200.569C62.8175 198.665 62.5768 196.626 62.8978 194.722C63.7004 194.211 63.2456 193.353 63.6201 192.575C63.6201 190.376 63.9144 188.338 64.7437 186.219L64.7972 176.723C65.466 176.052 66.1348 175.918 66.8571 175.489C67.0177 173.37 67.0177 171.787 67.5527 170.232C67.9539 169.051 68.3819 168.005 69.2648 166.905L72.5553 162.747C73.6522 162.157 75.2573 162.586 77.0764 162.425C78.5478 162.425 78.5478 160.923 77.0229 160.789C75.8726 161.541 75.0433 161.755 74.7222 160.95C74.1337 160.494 74.2407 159.582 74.8293 159.179C75.9795 158.992 76.6216 159.314 77.3974 159.85C77.9592 159.582 78.3872 159.1 78.7083 159.528C78.8687 159.662 79.2701 159.823 79.2968 160.414C79.5644 161.353 80.4472 161.46 81.33 161.164C82.882 160.87 84.059 161.541 85.1828 162.399C87.189 162.479 89.0081 162.264 90.7198 162.586C92.9409 164.169 95.3213 164.813 98.0228 164.598C99.2807 164.491 100.27 164.813 101.153 165.779C102.277 165.564 102.972 165.912 103.748 166.45C105.327 165.268 106.289 166.395 107.333 167.334C107.654 167.844 107.092 167.764 106.37 168.058C105.273 168.246 104.177 168.058 103.614 169.078C102.277 170.016 100.886 169.4 99.1467 169.051C98.6119 168.622 99.0935 168.274 99.9494 168.541C100.645 168.113 101.179 167.817 102.009 167.764C103.213 168.3 103.722 167.281 102.785 166.691C101.956 166.851 101.5 166.717 101.073 167.281C100.324 167.039 99.6283 167.147 98.531 167.281C97.5955 168.058 96.6853 168.327 95.3744 168.675C94.8397 168.139 94.4111 168.058 93.4757 167.978C93.7968 167.308 94.3315 167.227 94.7866 166.611C94.5995 166.154 94.224 166.073 93.7702 166.154C93.6627 166.128 93.3682 166.395 93.0737 166.933C91.4416 167.308 90.1851 167.308 87.9639 167.147C87.5898 168.139 88.419 168.917 89.2749 169.346C89.998 169.293 90.4252 169.749 90.3456 170.258C90.5592 171.117 89.8109 170.874 88.8476 171.653C90.4252 172.189 90.9334 173.209 91.1483 174.684L92.2444 176.347C91.9511 177.501 92.5655 178.09 93.262 178.064C93.7158 178.064 94.1975 177.823 94.5186 177.366C95.5615 176.588 96.7119 177.071 98.3439 177.045C99.7623 176.857 99.7888 178.493 98.2908 178.412C97.1935 178.359 96.3908 178.306 95.4553 178.359C94.7322 177.957 94.0369 178.037 94.1975 179.083C93.3682 179.539 92.7804 180.397 93.5287 181.363C93.7158 181.632 94.492 181.632 95.0533 181.766C95.3479 182.571 95.1873 182.812 94.2518 182.973C93.7967 184.635 94.0369 186.406 95.4553 187.586C96.9799 187.103 98.2099 186.675 99.5208 187.372C99.9494 187.372 100.431 187.238 100.645 187.694C100.86 188.016 100.752 188.793 100.03 188.525C98.5854 188.686 97.4615 188.847 96.0166 188.177C95.1342 189.143 95.2682 189.866 96.071 190.429C96.1771 190.645 96.7662 190.645 97.3541 191.101C96.9799 191.878 96.3642 192.307 96.5513 193.139C96.7928 193.836 96.7662 194.346 97.167 194.507C97.569 194.802 98.0506 194.694 98.3705 194.024C100.511 193.863 102.571 193.434 104.978 194.346C102.705 196.009 100.458 195.446 98.2377 194.989C97.7295 195.553 97.5412 195.821 97.5412 196.063C97.5955 196.33 97.8357 196.546 98.1834 196.974C98.665 197.296 99.3072 197.377 99.2806 197.967C99.2275 198.048 99.0126 198.315 98.6385 198.557C97.9432 198.853 97.6752 199.362 97.8901 199.925C98.0506 200.355 98.665 200.65 99.4412 200.381C100.752 200.596 100.939 199.952 100.083 198.692C101.474 198.075 103.053 197.86 104.577 199.281C103.909 199.603 102.945 199.711 101.903 200.059C100.699 199.362 100.163 200.194 101.047 201.535C101.956 201.025 102.571 200.516 103.401 202.205C104.819 201.964 105.809 201.508 107.146 201.776C107.707 201.749 108.029 202.232 108.163 202.715C107.199 203.44 106.343 203.01 105.033 203.359C103.454 202.044 101.5 201.642 99.3337 202.286C98.799 202.34 98.7194 202.796 98.799 203.037C98.8256 203.359 99.0936 203.573 99.4146 204.137C98.9596 204.673 98.6119 204.915 98.7459 204.942C98.6119 205.586 98.7725 205.987 99.3337 206.363C100.324 206.631 100.805 207.114 100.645 207.705C100.699 208.429 100.136 208.804 99.1732 209.233C99.0936 210.709 100.217 211.004 101.394 211.137C102.169 211.326 102.945 210.896 103.32 211.701C102.143 212.184 101.528 211.754 100.779 211.836C100.431 212.291 100.19 212.506 100.083 212.828C100.19 213.122 100.431 213.391 100.832 213.739L103.935 214.303C104.203 214.813 104.39 215.054 104.256 215.296C104.149 215.59 103.748 215.269 103.267 215.563C102.384 215.805 101.447 215.161 100.966 216.663C101.876 217.334 102.919 216.395 103.588 217.951C104.845 217.521 106.289 217.576 107.467 219.051C108.484 218.622 109.661 218.407 110.276 219.506C109.982 220.392 110.088 220.767 110.945 221.116C111.935 220.875 112.736 220.982 113.539 221.143C114.368 220.633 115.171 220.606 115.679 221.572C114.984 222.645 113.968 222.055 112.978 221.974C111.667 222.565 110.838 221.894 109.955 220.741C108.965 221.438 107.948 221.143 107.118 220.285C107.52 219.372 107.226 219.078 106.37 218.648C105.22 218.836 104.122 219.104 103.48 218.434C103.535 217.603 102.758 217.817 101.742 217.415C100.779 217.978 101.047 219.104 101.421 220.205C102.545 220.338 103.508 220.606 104.577 221.465C103.935 222.269 103.374 222.457 103.026 223.423C103.588 224.629 103.935 225.489 103.641 226.856C104.309 227.875 105.38 227.875 106.45 227.366C107.307 227.769 107.707 228.332 107.226 228.546C106.931 229.216 106.504 229.137 105.835 228.922C105.193 229.002 104.791 229.11 104.604 229.538C104.631 229.807 104.899 230.129 105.354 230.451C106.129 230.504 106.477 230.934 106.584 231.712C108.242 232.248 109.714 231.98 110.998 232.758C110.008 233.83 108.884 233.348 107.707 233.455C106.665 233.482 106.022 233.911 106.852 234.716C108.055 234.474 108.75 234.528 109.661 234.716C110.142 234.635 110.169 235.091 110.035 235.279C109.821 235.574 109.527 235.547 108.938 235.949L110.356 237.612C111.801 237.854 113.165 238.095 114.77 237.962C115.466 237.962 116.402 237.908 116.242 236.915C116.348 236.97 116.429 237.023 116.563 237.076C116.643 237.023 116.911 236.862 117.285 236.593L121.11 234.341C121.779 234.528 122.02 234.152 122.314 233.616C123.705 233.508 124.427 232.516 124.588 231.336C126.835 229.807 128.173 227.635 127.638 224.684C128.307 224.228 128.387 223.61 128.521 222.833L129.27 204.404C130.045 200.65 129.484 196.948 129.724 193.3C128.762 192.951 128.923 192.307 129.11 191.717C130.019 191.207 129.885 190.296 129.885 189.383C129.752 187.56 130.019 186.004 130.26 184.207C130.474 182.651 131.222 181.363 130.848 179.673C131.731 178.547 131.998 177.232 132.453 176.132C133.175 174.497 134.272 173.477 135.502 172.19C135.155 171.117 135.69 170.634 136.547 170.473C138.124 170.365 139.596 169.882 140.265 168.435C140.96 168.192 141.923 168.058 142.779 168.541C144.224 169.266 145.748 169.319 147.595 169.078C148.077 168.675 148.13 168.3 147.675 167.952C147.407 167.173 147.836 166.825 148.772 167.039C149.441 166.556 149.949 166.422 150.698 167.12C151.661 166.556 152.277 165.967 153.266 165.59C153.561 164.893 154.23 164.598 155.085 165.296C154.791 166.234 153.561 166.637 152.705 167.308C151.34 166.744 151.26 168.139 150.27 168.568C150.297 168.863 150.644 169.158 151.153 169.319C151.902 168.568 152.624 168.192 153.882 168.086C154.524 168.461 154.551 169.051 154.015 169.4C152.945 169.615 152.571 170.258 152.384 171.546C153.48 172.914 154.604 173.96 155.941 175.14L156.583 175.891L170.334 175.838C170.87 175.355 171.244 174.711 171.86 174.925C173.464 174.791 174.695 174.818 175.845 175.891C177.931 175.944 179.911 175.757 181.945 176.052C182.185 176.588 182.48 176.749 182.587 176.83C182.693 177.259 182.587 177.554 182.185 177.796C180.848 177.903 179.697 177.796 178.146 177.581C177.129 178.171 176.166 178.681 175.23 178.064C174.48 177.393 173.464 177.903 172.474 177.446L157.494 177.366C157.065 177.957 156.958 178.306 157.279 178.976C159.793 179.432 162.148 179.003 164.797 178.6L166.081 178.707C167.632 178.681 169.051 178.306 170.494 178.842L173.598 179.459L178.921 180.558C180.473 180.425 181.891 180.264 183.63 180.452C184.86 180.505 184.754 181.578 183.549 181.605C182.533 181.9 181.73 182.033 180.848 181.605H178.386C177.905 182.329 177.156 182.088 176.38 181.819C175.309 181.872 174.588 182.275 173.866 182.812C172.34 182.973 171.244 182.865 170.468 181.685H169.425C168.943 182.275 168.408 182.302 167.98 181.444C167.364 181.497 166.91 181.55 166.589 180.988C166.187 181.069 165.84 181.228 165.439 180.853C163.833 180.88 162.522 180.531 161.051 180.827C160.624 180.397 160.195 180.264 159.58 180.719C159.366 180.719 158.858 181.149 159.473 181.578C160.569 181.417 161.265 181.524 162.175 181.872C162.978 181.605 163.378 181.927 163.967 182.571C165.252 182.785 166.187 182.651 167.311 182.436C168.461 183.026 169.104 183.59 169.344 184.69L174.775 184.984C175.256 185.95 176.086 185.682 176.781 185.789C178.173 185.843 179.376 186.004 180.232 187.425C181.998 187.103 183.577 186.862 185.289 187.291C185.583 187.8 185.744 188.042 185.61 188.257C185.449 188.499 185.128 188.579 184.62 188.579C182.961 189.008 181.703 188.364 179.992 188.364C179.269 188.177 178.573 187.48 177.504 187.613C176.594 187.8 175.925 187.48 174.856 187.399C174 186.514 173.036 185.976 171.726 186.219C170.201 186.836 168.649 186.514 167.419 185.199H164.663C163.807 185.199 163.138 185.065 162.844 184.234C162.951 183.563 162.736 183.187 162.415 183.054C162.094 182.893 161.667 182.919 161.265 183.455C160.49 183.455 159.58 183.16 159.446 184.287C160.703 184.421 161.399 185.065 161.453 186.058C162.148 186.808 162.87 187.372 163.994 187.13C165.76 186.889 167.231 187.319 168.569 188.177L175.978 188.444C177.852 189.41 179.831 189.491 181.758 189.626C182.266 190.402 183.041 190.349 183.897 190.376C184.86 190.376 185.61 190.376 186.439 190.779C186.921 190.94 186.974 191.234 186.6 191.422C186.813 191.878 186.412 191.743 185.823 191.771C185.368 191.986 185.021 191.932 184.539 191.878C184.057 191.851 183.736 191.798 183.228 191.932C182.935 191.932 182.693 191.771 182.533 191.476C182.159 191.181 181.811 191.181 181.248 191.583C180.58 191.422 180.018 191.449 179.403 191.02C176.968 190.94 174.775 190.885 172.313 190.484C170.789 190.162 169.451 189.705 167.953 189.679C166.508 188.901 165.091 188.391 163.405 188.927C163.272 189.946 163.592 190.859 164.476 191.61H169.13C169.986 191.61 170.709 191.503 171.592 192.281C172.581 191.825 173.384 191.959 174.32 192.147C176.46 192.522 178.439 193.005 180.687 192.629L185.823 192.897C186.921 192.656 187.937 192.495 188.846 192.844C189.301 193.434 189.488 193.648 188.846 194.05C188.338 194.239 187.75 194.533 187.055 194.292L178.065 194.211C176.594 194.372 175.203 194.078 174.053 193.247C172.26 193.058 170.468 193.219 168.435 193.247C167.311 193.058 166.321 192.79 165.144 193.38C165.492 194.346 166.242 194.105 167.177 193.97C167.793 193.836 168.274 193.863 168.595 194.346C169.451 195.124 170.468 195.258 171.645 195.177C172.982 195.204 174.053 195.124 175.256 195.419C175.364 196.143 175.256 196.974 176.166 197.19C176.728 197.645 177.263 197.832 177.905 198.209L183.925 198.504C184.62 199.067 185.342 199.63 186.412 199.497C187.776 199.336 188.874 199.497 190.077 199.98C190.291 200.783 189.756 201.294 189.087 201.803C188.953 202.447 189.087 203.305 188.553 203.171C188.071 203.305 187.696 203.359 187.108 203.305C186.171 203.171 185.502 203.868 184.62 203.654C182.212 203.546 180.018 203.707 178.065 201.991C175.604 202.419 173.437 202.232 171.03 202.232C170.04 202.34 169.291 202.232 168.702 201.4C168.461 200.73 168.943 200.461 169.692 200.516L177.477 200.838C177.878 201.669 178.6 201.91 179.376 201.749L186.466 201.857C187.348 202.018 188.098 201.561 187.348 200.972C186.573 200.972 186.225 200.838 185.716 201.105C183.443 200.006 181.169 199.791 178.921 200.14C178.173 199.737 177.61 199.497 176.996 198.665C174.882 198.853 173.277 198.826 171.592 198.531C171.11 198.021 170.602 197.671 169.665 197.726L168.649 197.001C168.675 196.169 168.167 195.607 167.097 195.526C166.081 195.446 165.278 196.09 165.679 197.109C165.679 198.637 166.108 199.819 167.551 200.006C167.846 200.622 167.285 200.917 166.963 201.535C166.963 203.063 167.872 203.815 169.051 204.243L176.862 204.324C177.61 205.022 178.52 205.156 179.323 204.271C181.116 205.076 182.667 205.076 184.486 204.915C186.894 205.344 189.087 205.397 191.549 205.129C192.191 205.317 192.512 205.692 192.645 205.88C192.752 206.283 192.645 206.578 192.164 206.819L173.116 206.685C172.234 205.934 171.11 205.987 170.227 206.497C169.585 206.872 168.943 206.953 169.104 207.785C169.183 208.025 169.559 208.563 170.147 208.669C170.842 208.347 171.458 208.455 172.26 208.777C173.919 208.214 175.417 208.563 176.754 209.501C177.878 209.69 178.815 209.796 179.965 209.716C181.222 209.421 182.159 210.065 183.095 210.735C185.047 210.709 186.545 210.709 188.098 210.87C188.793 212.237 190.024 212.264 191.388 211.889C192.512 211.862 193.421 211.781 194.197 212.479C194.813 212.773 194.813 213.256 194.09 213.23C192.217 213.659 190.291 213.847 188.659 212.612C186.974 212.13 185.128 212.451 183.148 212.264C182.372 212.211 181.971 211.567 181.248 211.298C179.35 211.218 177.825 211.379 176.299 211.165C175.791 210.36 175.122 209.984 174.187 210.279C173.036 210.038 172.126 209.984 170.949 210.279C170.227 209.957 169.585 209.904 169.183 210.334C168.943 210.815 169.183 211.406 169.906 211.969C171.805 211.969 173.49 211.701 175.149 212.184C175.631 212.989 176.433 213.256 177.397 212.881C178.761 213.069 179.831 213.444 181.303 213.283C182.051 213.874 182.801 214.249 183.817 214.142C185.075 214.035 185.957 214.652 186.921 215.349C188.525 215.08 189.783 215.054 191.067 215.832C191.789 215.698 192.11 215.885 192.244 216.449C192.592 216.476 192.913 216.529 193.447 216.449C194.144 216.288 194.492 216.529 194.866 217.065C194.866 217.199 195.053 217.709 194.624 217.978C194.224 217.978 193.769 218.139 193.287 217.843C192.351 217.737 192.325 216.878 191.789 216.288C189.703 217.039 188.177 217.039 186.546 216.663C186.091 216.019 185.423 215.698 184.486 215.724C181.543 216.073 179.029 215.537 176.193 214.277C175.524 214.436 175.577 213.739 175.658 213.525C175.256 213.177 174.829 213.122 174.4 213.417C173.277 213.605 172.26 213.633 171.136 213.364C170.602 213.713 170.307 213.927 170.254 214.222C170.173 214.652 170.36 215.027 170.976 215.402L173.464 215.51C174.132 215.885 174.561 216.529 175.524 216.69C176.996 216.046 178.252 216.234 179.216 217.468C180.286 217.495 181.008 217.415 181.945 217.79C183.362 217.199 184.726 217.387 185.689 218.729L189.996 218.862C190.773 219.105 190.826 219.909 190.933 220.821C192.913 220.955 194.679 220.821 196.471 221.25C196.712 221.786 197.086 221.947 197.114 221.974C197.273 222.511 197.114 222.779 196.658 222.966C196.578 223.209 196.417 223.423 195.935 223.637C194.598 222.511 193.126 222.269 191.628 222.833C189.97 221.143 187.99 221.036 185.984 221.491C185.636 220.821 185.236 220.847 184.887 220.767C184.646 220.66 184.567 220.338 184.646 219.426C183.122 219.023 181.65 218.97 179.911 219.292C177.718 218.004 175.417 217.682 173.036 217.656C172.555 216.959 171.832 217.012 171.538 217.737C171.484 218.273 171.19 218.568 171.484 219.051C171.484 219.722 171.217 220.177 171.671 220.66C171.752 220.902 172.26 221.008 172.929 220.982C174.32 220.928 175.631 220.714 176.675 222.029C178.252 222.108 179.51 221.84 180.821 222.162C182.64 222.484 184.459 222.029 186.225 222.618C187.242 223.154 188.392 223.021 189.675 223.155C190.425 223.155 191.067 223.423 191.762 224.174C192.244 224.013 192.805 223.826 193.474 224.389C195.293 224.281 196.819 224.148 198.612 224.335C199.092 224.442 199.199 224.79 199.092 225.167C199.252 225.542 199.092 225.703 198.531 225.73C196.846 225.864 195.293 225.917 193.474 225.837C192.726 225.998 192.244 225.837 191.628 225.301C189.328 225.112 187.402 225.14 185.075 225.22C184.433 225.006 183.951 224.254 183.175 224.737L176.941 223.423C176.648 222.833 176.22 222.672 175.498 222.833C175.016 222.645 174.748 222.377 174.561 222.377C174.24 222.511 173.972 222.699 173.624 223.048C173.49 224.442 174.132 225.542 175.498 226.347C176.754 226.294 177.878 225.944 178.948 226.669L190.317 226.508C191.468 226.212 192.431 226.508 193.474 227.152C194.144 226.991 194.598 226.83 194.839 227.447C195.213 227.608 195.508 227.714 196.069 227.635C196.444 227.688 196.524 227.983 196.39 228.358L194.758 228.519C194.411 228.466 194.224 228.224 193.929 228.063L187.081 228.171L178.307 227.822C177.477 226.991 176.433 227.044 175.47 227.447C175.738 228.412 176.433 228.894 177.45 228.949C178.118 228.6 178.573 228.707 178.868 229.377C179.671 228.976 180.045 229.673 180.473 230.102L190.532 229.968C190.986 231.658 192.271 232.65 194.171 232.544C194.866 232.436 195.321 232.462 195.535 233.106C196.23 233.589 197.033 233.455 197.996 233.267C198.878 233.267 199.199 233.563 199.413 234.394C200.431 234.582 201.126 233.964 201.687 233.053C202.571 232.383 203.533 231.873 203.159 230.451C204.283 229.699 204.604 228.519 205.352 227.58C206.128 226.616 206.636 225.595 207.145 224.201C207.171 223.476 207.974 223.665 208.402 223.262C209.205 222.377 209.659 221.519 209.713 220.285C209.526 219.533 210.034 219.104 210.301 218.487C210.248 216.663 210.783 215.322 211.586 213.9L211.506 211.165C212.094 210.709 212.228 210.118 212.362 209.34L213.03 203.144C213.886 201.937 213.752 200.516 213.699 199.04C214.261 197.296 213.752 195.607 214.502 194.024L214.929 182.973L216 179.056V153.359C215.571 152.071 215.331 150.865 215.411 149.469L215.518 149.496ZM181.409 26.5633C180.071 27.0184 178.681 27.1261 177.931 25.865C177.825 25.7585 177.744 25.6774 177.638 25.5975C178.841 25.3821 179.618 24.9803 180.821 25.1945C181.437 25.3554 181.784 25.4898 181.837 25.7319C181.971 26.0538 181.864 26.4556 181.409 26.5899V26.5633ZM60.7041 102.635C61.8813 101.375 62.8711 101.294 65.1183 102.26C63.9947 103.225 62.4163 103.279 60.7041 102.635ZM57.5206 151.428H47.2478V150.033H57.5206V151.428ZM43.3956 157.999C43.449 156.846 43.6899 156.605 44.6529 156.927C45.4822 156.793 46.1777 156.685 47.0606 157.516C46.2313 158.509 44.6529 158.536 43.3956 157.999ZM48.0504 166.905C47.7293 167.388 47.3281 167.281 46.5523 167.388C45.8567 167.253 45.2682 166.851 44.9472 166.556C45.5893 165.859 45.8567 165.671 46.6058 166.02C47.1675 165.806 47.5421 165.59 47.8096 166.073C48.0772 166.181 48.5587 166.611 48.0236 166.933L48.0504 166.905ZM46.4988 194.427L46.2848 192.87L48.8797 192.522L49.0937 194.078L46.4988 194.427ZM44.3051 209.635C41.5764 210.091 39.249 210.628 36.8413 209.046C39.0082 208.268 41.2287 208.347 43.6364 208.563C44.2248 208.83 44.7332 209.18 44.3051 209.662V209.635ZM42.2988 222.135C41.4962 221.813 41.0949 221.089 40.2388 221.089C39.463 221.277 38.9279 221.197 38.6872 220.821C38.3127 220.499 38.3929 219.963 38.4732 219.426C38.6604 218.944 39.3293 218.648 40.1586 218.809C41.5496 218.675 41.2287 220.097 41.4427 221.116C43.5561 221.008 43.6364 221.894 42.2988 222.162V222.135ZM43.8236 217.065C42.4592 216.341 41.7905 216.529 40.7738 216.18C41.3892 215.376 42.3789 215.644 43.3956 215.188C44.0376 215.188 44.4389 215.188 44.6262 215.671C44.7866 215.993 44.9204 216.824 43.8236 217.093V217.065ZM39.1153 171.707L39.7037 170.874C40.9612 170.473 42.272 171.035 43.5561 170.419C44.7064 170.124 45.7498 170.741 47.1675 170.821L48.5051 172.162C50.2976 172.35 51.8492 172.645 53.9894 172.618C55.5945 172.484 55.113 174.684 53.4811 173.611C51.1805 174.228 48.9868 174.818 47.3014 173.183C45.8567 173.397 44.6797 173.101 43.4224 172.618C42.058 172.672 40.8809 172.779 39.7037 172.511L39.1153 171.707ZM39.3828 176.401C40.9612 175.113 42.6732 175.221 44.6529 175.489C45.7765 174.818 46.7663 174.899 47.8632 175.355C48.7728 174.899 49.5218 174.818 50.4313 175.274C51.7689 174.738 52.8925 174.818 54.2836 174.872C54.7919 174.738 54.899 175.221 54.8187 175.543C55.0059 176.16 54.3639 176.186 53.6149 176.293L47.1943 175.838C46.3116 176.213 45.6159 175.944 44.7064 175.73C43.9841 176.482 43.7433 177.232 42.4592 177.285C40.8809 177.501 39.9178 177.688 39.3293 176.374L39.3828 176.401ZM49.8161 177.179V178.52H46.6058V177.179H49.8161ZM46.6058 186.219H40.8273V184.904H46.6058V186.219ZM47.8899 182.973H39.5433V181.685H47.8899V182.973ZM49.7626 194.507C50.6722 193.675 51.7957 193.648 52.9996 194.453C52.2505 195.955 50.7256 195.848 49.7626 194.507ZM52.3842 181.363C51.1269 180.586 49.8427 180.988 48.5319 180.853C47.6224 180.773 46.8466 180.692 46.5523 179.888C47.7295 179.217 48.639 179.432 49.8161 179.164C50.5919 179.512 51.1537 179.298 51.9027 179.111C52.3842 178.573 52.8925 178.198 53.3474 178.225C54.0429 178.145 54.6582 178.332 55.0327 179.137C54.8187 179.914 55.113 180.37 55.648 181.149C54.7384 182.033 53.5346 182.302 52.411 181.389L52.3842 181.363ZM56.2366 168.166H51.1002V166.878H56.2366V168.166ZM50.6454 162.801C50.3779 161.996 49.709 162.613 49.1472 162.024C51.2874 161.084 53.6149 161.272 56.2633 161.353C57.4671 161.058 58.671 161.058 59.2328 162.372C56.1563 162.962 53.4543 163.069 50.6722 162.829L50.6454 162.801ZM50.4045 158.59C50.9664 158.053 51.6352 158.026 52.411 158.187C53.4276 158.026 54.1766 157.704 55.6212 158.778C55.3537 159.368 54.5244 159.126 53.6417 159.207C52.411 159.609 51.1803 159.85 50.4045 158.59ZM58.8315 157.276L55.113 157.115C54.2301 155.854 52.8658 157.195 51.662 156.176C54.1232 155.585 56.611 156.122 59.2862 155.907C59.634 156.658 59.5003 157.168 58.8047 157.276H58.8315ZM66.9106 122.244C67.0443 122.538 67.1781 123.182 66.6966 123.504C64.9845 123.53 63.8876 123.021 62.5233 122.914C61.373 123.236 60.4634 123.343 59.3933 122.86C59.7945 122.244 60.5437 122.753 60.9181 121.814C61.8277 122.35 62.8175 121.922 63.9679 122.028C65.038 122.405 65.8941 121.761 66.9106 122.244ZM62.0417 125.945C60.9181 127.259 58.778 127.367 57.6811 125.918C59.1258 124.926 60.5437 125.06 62.0417 125.945ZM60.0888 114.116H63.9411V115.538H60.0888V114.116ZM62.4965 116.852C63.6736 116.396 64.2087 116.638 63.3793 118.059C62.4431 117.657 61.6673 117.335 60.7309 117.791C59.9283 117.871 59.5805 117.737 59.099 117.013C59.7945 116.047 61.2392 115.913 62.5233 116.852H62.4965ZM62.6035 119.346C62.7106 119.776 62.4163 120.017 61.7207 119.856C60.4098 120.178 59.6876 120.259 58.8047 119.856C57.8149 119.909 56.9053 120.098 56.2633 119.078C58.4035 118.354 60.3831 118.623 62.6035 119.32V119.346ZM56.2366 127.956C56.4238 127.474 56.9053 127.742 57.5742 127.716C58.8047 127.528 59.6608 127.823 60.7577 128.467C60.5972 129.11 59.9819 129.057 59.3933 128.816C58.5907 129.486 57.8952 129.057 56.9321 128.842C56.1295 129.003 56.0226 128.278 56.2366 127.956ZM61.9614 137.721C60.0354 138.016 58.2163 137.962 56.4238 137.694C56.2366 137.051 55.862 136.943 55.8085 136.969C55.6212 136.192 56.2366 136.193 56.7448 135.871C58.35 135.388 60.0086 135.816 61.6939 135.843C62.0953 135.843 62.3093 136.272 62.4698 136.433C62.6571 136.835 62.336 137.024 61.9614 137.774V137.721ZM63.4596 132.356C62.3895 132.973 62.015 132.678 61.587 131.739C60.6238 132.517 60.1423 132.276 60.062 131.578C61.3195 131.471 62.1488 131.202 63.2724 130.854C63.8876 130.962 64.2622 130.962 64.4227 131.256C64.6634 131.712 64.3425 132.329 63.4596 132.356ZM63.299 130.424L63.2456 128.949L66.4826 128.816L66.5362 130.291L63.299 130.424ZM65.145 128.172L64.6902 126.589L66.6431 126.026L67.0979 127.608L65.145 128.172ZM70.3884 108.697C69.6661 109.046 69.0775 109.074 68.4355 108.724C64.9043 108.858 61.801 108.778 58.136 108.295C58.3232 107.303 59.2328 107.409 60.0888 107.57L66.4559 107.034C67.7935 107.678 68.9973 107.303 70.1476 107.248C70.4151 107.812 70.6024 108.053 70.3884 108.67V108.697ZM75.3376 72.593C76.0331 73.37 76.8892 72.4321 77.772 73.2369C76.8624 74.095 75.9795 73.1292 75.3108 73.9074C74.6152 74.0684 73.7592 74.1748 73.0368 73.7731C72.5553 73.37 71.8063 73.8795 71.5923 73.1026C73.0368 72.6463 74.1069 72.19 75.3376 72.593ZM69.1043 83.269C69.1043 83.269 69.0508 83.0535 69.024 82.9192C69.0508 82.9192 69.1043 82.9192 69.1311 82.9192C68.8903 82.3564 68.596 82.1688 68.9437 81.8735C69.9069 81.0953 71.0037 81.4717 71.6457 82.3298C70.7362 83.108 70.0138 82.9737 69.1311 82.9192C69.1578 83.0003 69.2114 83.0801 69.238 83.2145C69.1846 83.2411 69.1578 83.2411 69.1043 83.269C69.3986 84.2614 70.0673 84.0726 70.2547 84.61C69.2648 85.4148 68.0876 85.4414 67.0177 84.61C67.5259 83.6175 68.1679 83.724 69.0775 83.269H69.1043ZM72.7693 88.6596C70.8431 88.7407 69.0775 88.3655 67.1781 87.534C65.8673 87.7749 64.7169 87.6405 64.0748 86.5948C66.2419 85.5758 68.1947 85.8977 70.3349 86.6215C71.1642 86.97 71.8598 87.2654 72.9299 87.0778C73.5183 87.3731 73.7324 87.7483 73.6789 87.9891C73.786 88.4986 73.1706 88.5265 72.7693 88.6596ZM75.1502 83.8318C74.4012 84.2069 74.535 84.8242 75.3108 86.0042C74.1337 86.7292 72.5821 86.5137 71.5388 85.3603C72.475 85.1994 72.9031 85.0384 73.5986 84.6632C74.5618 84.449 74.1337 83.885 73.4114 83.2956C73.8126 82.6251 74.1069 82.5706 74.5082 82.6517C74.9898 82.4642 75.2037 82.8925 75.8191 83.4566C75.6051 83.724 75.2305 83.8318 75.177 83.8584L75.1502 83.8318ZM77.7988 82.0877L74.5884 81.8203L74.7222 80.2638L77.9325 80.5325L77.7988 82.1156V82.0877ZM78.6815 76.1597H70.977V74.7389H78.6815V76.1597ZM74.7222 65.5915C73.9732 65.2429 74.1872 63.9818 75.0433 63.7144C76.3006 63.6599 77.3439 63.5255 78.5478 63.741C78.949 64.1428 79.5644 64.4381 79.7248 65.1352C77.9325 66.5573 76.6216 65.94 74.749 65.5649L74.7222 65.5915ZM84.1386 66.4496C82.8277 65.4305 81.758 65.5383 80.9555 66.5573C81.9185 67.4965 83.2828 67.603 84.1386 66.4496ZM87.6972 50.3285C88.2319 50.838 87.6972 51.1866 87.0816 51.3476C85.9046 51.9116 84.9148 51.7506 84.4332 50.3551C85.5039 49.9267 86.5203 49.8722 87.6972 50.3551V50.3285ZM87.8312 55.8547C87.3761 56.2832 87.0019 55.9612 86.2788 56.2033C85.0754 55.5062 84.0324 54.7546 82.695 54.7279C82.5344 54.1107 82.2128 54.0042 82.1059 54.0042C81.865 53.3869 82.3733 53.3058 82.7215 52.6898C83.657 52.3679 84.9148 52.2336 85.6366 52.9041C85.691 54.6481 87.2421 54.4871 88.2585 54.7546C88.2585 55.6938 88.1523 56.0157 87.8312 55.8814V55.8547ZM99.0126 20.3666C98.799 19.9648 98.3439 19.6429 98.1303 19.0523C99.2541 18.1131 100.404 18.3286 101.34 19.5352C102.49 19.5086 103.213 19.8837 102.945 20.5276C103.293 21.8686 102.384 22.3515 100.779 21.9763C98.6385 22.4859 96.9268 22.5657 95.2948 21.4668C96.5248 20.5808 97.6221 20.7152 98.9861 20.3666H99.0126ZM94.6791 35.4952C94.7322 34.6638 95.1608 34.262 95.669 34.3418C96.2581 34.2886 96.9002 34.2341 97.301 34.9857C96.7119 35.9782 96.071 36.2735 95.1873 36.5688C94.8397 36.944 94.4111 36.7019 94.2784 36.4877C94.1178 36.1658 94.2784 35.8438 94.6526 35.4952H94.6791ZM93.6096 32.3304L93.6627 30.8005L96.8459 30.9083L96.7928 32.4368L93.6096 32.3304ZM97.2479 28.5748C96.6322 27.9576 95.8295 27.8777 94.9206 27.77C94.7322 27.2338 94.76 26.8853 95.1608 26.6964C95.4288 26.4024 95.9104 26.3213 96.6853 26.3213C97.8357 26.7509 98.6916 27.2072 99.6814 28.1452C99.2806 29.1376 98.1303 29.1921 97.2744 28.5748H97.2479ZM92.0838 23.5315C93.7158 22.861 95.0268 22.9688 96.4717 22.9688C96.7397 23.7191 97.1935 23.3706 98.531 23.4251C98.4779 24.0145 97.8901 24.766 97.301 24.5239C96.2846 24.041 95.5893 24.766 94.7057 24.4707C93.5553 24.7115 92.6198 24.524 92.0838 23.5315ZM89.9436 39.5461C90.8803 40.5107 92.1116 40.2698 92.8069 39.8402C91.9776 38.6335 90.8538 38.2584 89.9436 39.5461ZM85.9843 39.2774C85.557 38.7679 85.2359 38.6601 85.155 38.3648C85.0488 37.8021 85.557 37.4269 86.3863 37.6411C87.0816 37.4535 87.4027 37.7754 87.9917 38.4193C87.4027 38.7679 86.7339 39.0632 85.9843 39.2774ZM92.6464 43.73L88.9272 43.2738L89.0878 41.8795L92.8069 42.3358L92.6464 43.73ZM102.624 115.323C101.555 115.028 101.073 115.43 100.511 116.235C99.3337 117.576 98.1303 118.22 96.9799 118.462C95.535 118.515 93.7158 118.193 92.9409 116.638C92.3518 115.538 91.228 114.894 91.7627 113.472C91.496 112.534 91.6831 111.782 92.5655 111.112C92.5655 110.038 93.1811 109.583 94.0369 109.61C94.626 108.617 95.5084 108.241 96.6853 108.536C98.1568 108.188 99.3072 108.697 100.297 109.851C101.153 110.655 101.795 111.191 102.866 111.085C103.133 112.614 103.32 113.981 102.651 115.296L102.624 115.323ZM99.9759 16.7188V15.1092L103.48 15.0559V16.6643L99.9759 16.7188ZM105.059 18.6771C104.443 18.6771 103.935 18.1676 103.935 17.5503C103.935 16.9331 104.443 16.4235 105.059 16.4235C105.675 16.4235 106.183 16.9331 106.183 17.5503C106.183 18.1676 105.675 18.6771 105.059 18.6771ZM115.198 189.518C114.77 190.215 114.075 189.866 113.378 189.491C112.71 189.571 112.362 189.437 112.068 188.632C112.71 188.525 113.191 188.391 114.423 188.016C115.573 188.418 115.413 189.249 115.198 189.544V189.518ZM116.134 191.234C115.6 192.415 114.423 192.281 113.754 191.395C114.289 190.429 115.118 190.135 116.134 191.234ZM112.336 179.727C112.87 180.236 113.325 180.048 113.726 179.969C114.102 180.586 114.744 180.236 115.198 181.202C113.941 182.41 111.907 182.382 110.516 181.149C109.527 180.8 108.75 180.827 107.787 180.264C107.976 179.539 108.51 178.976 109.661 179.351C110.329 178.654 110.945 178.09 111.88 178.628C111.988 179.325 112.228 179.727 112.309 179.727H112.336ZM110.49 190.054C110.49 190.537 110.142 190.779 109.982 190.912C109.767 191.262 109.419 190.912 108.858 190.967L103.24 189.276C104.337 187.855 106.102 188.069 107.628 188.794C108.029 188.954 108.35 189.035 108.59 188.874C108.59 188.847 108.563 188.821 108.537 188.794C108.618 188.74 108.671 188.713 108.75 188.686C108.805 188.579 108.858 188.472 108.911 188.311C108.992 188.391 108.805 188.177 108.403 187.639C108.35 187.639 108.323 187.639 108.269 187.694C108.189 187.506 108.108 187.399 108.029 187.238C106.718 187.639 105.541 187.639 104.364 186.62C104.524 186.084 105.033 186.219 105.594 186.325C106.531 185.709 107.386 186.031 108.029 187.211C108.029 187.211 108.082 187.211 108.108 187.211C108.216 187.372 108.323 187.506 108.403 187.639C109.34 187.291 109.927 187.345 110.757 187.586C111.533 187.425 111.587 187.935 110.917 188.311C110.222 188.418 109.634 188.177 108.75 188.686C108.697 188.766 108.644 188.847 108.59 188.874C109.018 189.732 109.74 189.598 110.516 190.081L110.49 190.054ZM111.801 195.393C112.014 196.224 111.988 196.813 111.907 197.993C111.399 198.396 110.677 198.45 110.303 197.993C109.419 197.377 108.323 197.726 107.307 197.27C106.878 197.029 106.557 196.948 106.477 196.707C106.263 196.17 106.744 195.982 107.118 195.365C108.671 195.071 110.195 195.071 111.801 195.365V195.393ZM102.999 176.374C103.962 175.65 105.033 175.704 106.263 175.865C106.638 176.482 106.931 176.804 107.6 176.749C108.269 176.696 108.777 176.749 109.152 177.018C109.661 177.501 110.035 178.359 108.938 178.895C107.948 178.842 107.118 178.6 106.263 179.593C104.096 180.048 102.25 179.914 100.378 179.244C100.966 177.984 101.849 178.573 102.571 178.064C102.919 177.796 103.32 177.903 103.561 177.501C103.535 177.34 103.267 177.071 102.972 176.347L102.999 176.374ZM110.061 169.937L111.961 171.573L110.597 173.183L108.697 171.546L110.061 169.937ZM109.313 173.692V175.194L106.825 175.221L106.824 173.719L109.313 173.692ZM106.236 169.078C107.092 169.078 107.654 168.997 107.868 169.99C106.986 171.09 105.488 171.009 104.309 170.151C104.899 169.4 105.514 169.212 106.236 169.078ZM97.7017 170.848C98.2099 170.365 98.9596 170.285 99.8697 170.419C100.458 170.312 100.86 170.821 100.992 171.438C101.287 172.404 102.143 172.565 103.106 172.511C103.962 172.753 104.443 172.94 104.256 173.825C102.785 174.202 101.421 174.175 100.083 173.692C99.3603 172.94 98.4514 172.806 97.5955 172.458C97.4084 171.814 97.3541 171.224 97.7295 170.902L97.7017 170.848ZM92.1647 170.821L92.1116 169.48L95.9901 169.346L96.0431 170.688L92.1647 170.821ZM98.531 175.274C97.4615 175.006 96.7119 175.247 95.3213 175.274C94.9471 174.764 95.2682 174.202 95.2682 174.228C95.8826 173.45 96.4717 173.638 97.1935 173.745C97.9963 174.63 99.0935 175.274 100.565 174.63C100.992 175.006 101.26 175.221 102.384 175.596C102.571 176.079 101.822 175.971 101.287 175.944C100.297 176.615 99.1997 176.427 98.531 175.3V175.274ZM98.5854 185.011C98.1834 185.279 97.4881 185.145 96.6322 184.743C95.9901 184.395 96.2037 183.751 96.6057 183.643C96.9533 182.838 97.5955 182.919 98.8521 183.054C99.5208 183.831 99.3603 184.69 98.6119 185.011H98.5854ZM98.531 182.329C97.5955 181.283 96.6588 180.773 95.4819 180.612C94.8928 180.209 95.0268 179.995 95.5615 179.325C96.2315 179.459 97.033 179.486 97.7017 179.378C98.5045 180.264 99.3072 180.425 100.27 180.639C100.19 181.31 100.458 181.55 101.207 182.007C102.972 181.685 104.443 181.471 105.888 182.007C105.915 182.275 105.996 182.463 106.102 182.651C106.156 182.651 106.209 182.651 106.236 182.651C106.263 182.758 106.263 182.812 106.289 182.919C106.557 183.16 106.931 183.241 107.413 183.026C108.429 182.893 109.419 182.785 110.088 183.509C109.767 184.556 109.982 185.039 110.757 185.279C111.346 184.957 111.746 185.092 111.854 185.387C112.041 185.789 111.854 186.192 110.917 186.272C110.543 185.897 110.57 185.467 110.008 184.796C108.858 185.36 107.975 185.575 106.878 184.823C106.209 184.662 106.531 183.965 106.289 182.919C106.209 182.838 106.156 182.785 106.075 182.677C104.016 183.107 102.277 183.215 100.618 182.249C100.083 181.363 99.4146 181.927 98.5045 182.382L98.531 182.329ZM100.163 186.567L100.057 185.039L103.427 184.796L103.535 186.325L100.163 186.567ZM102.945 192.683C102.197 192.576 101.421 193.112 100.458 192.334C101.02 191.556 102.063 191.583 103.187 192.254C105.354 191.262 107.547 191.262 109.34 192.468C110.061 191.395 110.784 191.878 110.784 192.495C108.163 193.514 105.701 193.38 102.972 192.656L102.945 192.683ZM105.594 200.381C106.343 199.308 107.36 199.362 108.35 199.603C108.965 200.811 110.035 201.239 111.399 200.489C112.282 201.239 112.817 200.838 114.663 201.052C114.476 201.883 113.512 201.561 112.791 201.669C111.88 202.152 111.078 201.964 110.329 202.071C110.142 201.561 109.795 201.481 109.313 200.622C108.002 200.999 106.771 201.321 105.594 200.381ZM114.61 203.895C114.315 204.378 113.566 204.324 112.577 204.003C111.266 204.565 110.195 204.512 108.831 203.949C109.553 202.902 110.73 202.741 112.041 203.359C113.031 202.58 113.86 202.715 114.636 203.895H114.61ZM100.083 204.485C101.581 203.627 103.267 203.788 104.631 204.754C105.835 205.209 107.386 204.915 108.537 206.309C109.767 206.658 111.266 206.229 112.71 206.927C113.673 206.711 113.941 207.088 113.834 208.375C111.854 208.724 109.955 209.046 108.242 208.321C108.429 207.275 108.323 206.927 107.547 206.497C105.541 207.114 103.829 206.578 102.277 205.665C101.26 205.747 100.217 205.531 100.083 204.459V204.485ZM109.232 210.306C108.911 210.628 108.805 211.111 108.269 211.137C107.654 211.057 107.307 211.326 106.986 210.87C106.905 210.735 106.263 210.334 106.799 210.065C107.092 209.743 107.547 209.555 108.376 209.716C108.884 209.957 109.045 210.199 109.206 210.306H109.232ZM102.09 209.421C102.919 208.241 103.856 208.589 105.594 208.991C104.978 210.118 103.454 210.574 102.09 209.421ZM106.049 216.932L105.835 215.537L108.59 215.135L108.805 216.529L106.049 216.932ZM109.848 212.291C108.965 213.578 107.654 213.9 105.941 212.962C104.069 213.605 103.669 211.808 105.38 212.076L109.447 211.969C110.116 210.574 111.319 210.521 112.389 211.432C111.907 211.353 111.801 211.701 111.667 212.318C111.266 212.103 110.864 212.479 109.848 212.318V212.291ZM114.931 217.709H110.116V216.423H114.931V217.709ZM112.443 214.33C110.891 214.544 111.159 212.747 112.63 213.713C113.78 213.9 114.368 213.095 115.198 212.425C115.813 212.345 116.161 212.694 116.108 212.64C116.83 213.203 116.535 213.659 116.429 214.652C115.252 214.947 114.102 214.116 112.443 214.33ZM105.915 222.645C106.129 222.377 106.45 222.404 106.799 222.082C107.681 221.707 108.51 222.43 109.393 223.101C110.008 223.182 110.248 223.37 110.356 223.557C110.838 223.932 110.784 224.576 109.848 224.737C108.216 224.576 107.547 223.798 106.423 223.288C105.835 223.209 105.809 222.833 105.941 222.645H105.915ZM106.905 226.508C105.273 227.071 105.059 225.193 106.718 225.595C107.6 225.595 108.163 225.301 108.858 225.408C110.222 225.73 111.293 225.354 112.202 224.523C113.62 224.12 115.171 223.959 116.509 224.55C116.429 225.676 116.215 226.133 115.198 225.944C114.636 226.347 114.102 226.777 112.951 226.534C110.757 226.964 108.965 227.286 106.905 226.481V226.508ZM110.437 230.29C109.634 230.451 108.938 230.182 108.484 229.593C109.045 228.976 109.419 228.734 109.821 228.734C110.543 228.573 111.078 228.734 111.72 229.512C111.533 230.102 110.972 230.317 110.437 230.317V230.29ZM110.677 236.057C111.961 235.36 113.352 235.601 115.225 235.494C115.225 235.655 115.358 235.816 115.653 235.949C115.653 236.165 115.653 236.352 115.706 236.54C113.726 236.942 112.282 237.371 110.677 236.057ZM117.151 234.662C116.83 234.796 116.455 234.877 115.866 234.716C115.706 234.796 115.573 234.877 115.466 234.983C115.466 233.911 114.797 234.125 113.968 234.502C113.299 234.502 112.523 234.502 112.764 233.803C114.181 233.911 114.555 233.616 115.545 233.347C116.268 232.919 115.679 232.248 114.77 232.301C114.502 231.604 114.021 231.658 113.246 231.953C112.87 231.845 112.657 231.631 112.549 231.201C112.657 230.746 112.87 230.531 113.272 230.478C113.887 230.585 114.236 230.692 114.555 230.559C114.984 229.726 115.866 229.968 116.696 230.156C117.017 230.37 117.017 231.04 116.99 231.845C116.884 232.516 116.937 233.026 117.579 233.267C117.953 233.911 117.579 234.394 117.151 234.635V234.662ZM145.401 167.092C144.866 167.361 144.305 167.334 143.716 166.637C144.01 166.047 144.545 165.993 145.695 165.939C146.15 166.342 145.748 166.851 145.401 167.092ZM177.209 184.851C176.701 184.851 176.299 184.448 176.299 183.938C176.299 183.429 176.701 183.026 177.209 183.026C177.718 183.026 178.118 183.429 178.118 183.938C178.118 184.448 177.718 184.851 177.209 184.851ZM174.32 66.0212C175.898 65.3507 177.37 65.4571 178.547 66.7449L182.399 66.7981C183.523 67.5231 184.673 67.4686 185.368 68.4078C185.85 68.2202 185.583 68.783 185.396 68.8641C185.155 69.0251 184.86 68.8641 184.486 68.1404C182.746 68.3014 181.356 68.5156 179.403 68.4623C178.734 67.9794 178.386 67.1746 177.557 67.0668C176.327 67.603 175.256 67.3888 174.213 66.6917C173.571 66.3431 173.598 65.7525 174.374 66.0212H174.32ZM175.043 70.688L171.057 69.3736C169.933 69.669 168.917 69.508 168.381 68.4078C167.231 68.4078 166.214 68.6233 165.278 67.8983C165.787 66.8792 166.482 66.8526 166.963 66.7981C167.872 66.5041 168.274 67.5497 168.996 68.1404C170.147 67.7906 170.842 68.1125 171.645 68.6233C172.661 68.0859 173.036 68.6765 173.624 69.4002C175.309 68.7564 176.62 69.0783 177.638 70.3394C178.36 70.3394 178.467 70.7146 178.788 71.4662C178.841 71.6006 178.921 71.6804 178.975 71.7882C180.286 71.2786 181.248 71.0911 182.533 71.6006C182.774 72.6197 182.346 73.0481 181.409 72.8605C180.339 73.1026 179.59 72.8605 178.975 71.7882C178.975 71.7882 178.948 71.7882 178.921 71.7882C178.868 71.6538 178.815 71.5461 178.788 71.4396C178.788 71.4117 178.761 71.3851 178.734 71.3585C177.343 71.868 176.059 71.9226 175.043 70.688ZM174.187 76.6971C174.99 76.3752 175.738 76.3752 176.46 75.8112C176.888 75.8112 177.61 75.7845 177.638 74.9797C179.108 74.6577 180.259 74.4702 181.356 75.5437C180.5 76.2408 179.376 76.2142 179.242 77.4741C179.082 78.5476 177.905 78.4133 176.915 78.3867C175.845 78.521 174.935 78.4133 174.24 77.5818C173.598 77.3131 173.571 76.9646 174.213 76.6971H174.187ZM165.465 79.7277C164.047 79.8088 163.031 79.4323 162.201 78.36C160.73 78.4133 159.606 78.4944 158.456 78.2257C157.681 77.9304 157.547 77.2599 157.76 76.5361C158.028 75.9987 158.616 75.5437 159.714 76.0533C161.238 75.8923 161.292 74.6311 159.767 74.4435C158.484 75.0608 157.681 74.6045 158.537 73.6387C161.292 73.7996 163.299 73.1026 165.465 74.0405C165.947 75.0874 166.803 74.9531 167.98 75.0608C169.504 74.8187 171.002 74.5234 171.726 76.0266C169.425 76.5361 167.311 76.5362 165.412 75.436C164.77 74.3624 163.673 75.275 162.683 75.4892C161.453 74.8187 160.703 76.1065 162.067 76.4284C162.951 76.7237 162.79 77.7428 163.486 78.0913C165.787 77.9304 167.872 78.5476 169.88 80.0762C168.488 81.364 166.776 81.042 165.412 79.7809L165.465 79.7277ZM171.057 81.8469V80.3449L175.925 80.2372V81.7392L171.057 81.8469ZM174.748 85.1727C174.187 84.7164 174.026 84.4224 173.919 84.288C174.187 83.885 174.427 83.5364 174.962 83.7785C175.63 83.5098 175.952 83.9661 175.899 84.3146C176.273 84.9851 175.711 85.3337 174.748 85.1727ZM162.388 86.8357C163.191 85.5213 165.063 85.5213 166.508 86.7292C167.551 87.0232 168.221 87.4796 168.033 88.5797C165.947 88.7141 164.02 88.3376 162.388 86.8623V86.8357ZM153.079 161.353L151.34 162.962C150.431 163.016 150.376 163.74 151.26 163.605C152.25 163.821 152.25 165.001 151.045 165.107C149.949 165.886 149.146 166.556 147.916 166.073C147.38 166.073 147.274 165.645 147.38 165.268L148.104 164.304C147.782 163.632 147.648 163.123 147.728 163.016C148.049 162.399 148.531 162.238 149.307 162.346C150.216 161.353 151.126 161.272 152.384 161.299C152.517 160.414 152.437 160.065 152.571 159.582C152.838 159.179 153.507 159.234 154.39 159.261C155.005 159.528 154.925 160.2 154.844 160.763C154.524 161.164 154.043 161.836 152.998 161.353H153.079ZM156.958 171.948C156.797 172.806 156.022 172.726 155.353 172.511C155.032 172.243 154.951 171.626 155.059 170.687C155.754 169.749 156.504 169.185 157.413 168.997C158.323 170.177 159.045 169.212 159.633 168.353C161.238 168.407 161.292 167.12 159.793 166.691C158.429 167.549 157.145 167.925 155.62 168.139C154.978 168.192 154.951 167.764 155.567 167.281C156.53 167.603 157.413 167.388 157.734 166.261L160.195 166.181C160.622 166.315 160.864 166.986 161.693 166.878C163.138 166.691 163.272 168.327 161.533 168.247C160.971 168.783 161.238 169.721 162.362 169.427C163.244 170.071 162.736 171.143 161.533 170.526C160.275 170.874 159.313 170.768 158.456 170.098C157.894 170.741 157.305 171.17 156.958 172.001V171.948ZM160.596 173.343C161.104 172.378 161.961 172.243 163.004 173.183C162.443 174.389 161.265 174.255 160.596 173.343ZM161.506 165.725C161.854 165.054 162.148 164.785 162.201 164.625C162.335 164.143 162.201 163.74 161.559 163.526C160.73 162.774 159.927 162.56 159.098 162.829C158.724 162.264 158.376 162.425 158.269 162.586C157.787 162.908 157.36 163.471 158.162 163.687C159.152 163.526 159.366 164.115 159.339 164.785C158.216 165.323 157.36 164.679 156.476 163.821C155.728 164.115 155.407 163.982 155.059 163.901C154.604 163.74 154.256 163.338 154.551 162.533C156.128 162.586 157.173 161.621 156.931 159.636C158.403 158.965 160.409 158.858 161.372 160.306C161.185 161.406 161.72 161.889 162.469 161.728C163.807 161.353 165.439 160.923 166.429 162.238C167.364 162.829 168.488 162.452 169.906 162.372C170.681 163.391 171.592 164.062 173.116 163.632C173.732 164.571 174.48 164.84 175.604 165.242C174.213 166.611 171.939 166.476 170.415 165.162C170.281 164.143 169.451 164.249 169.157 164.571C168.381 164.893 168.327 165.698 169.612 166.422C169.183 167.361 168.381 167.71 167.551 167.12C166.695 166.986 166.642 166.181 166.321 164.946C164.931 166.342 163.218 166.664 161.506 165.751V165.725ZM175.791 167.308C175.845 167.603 175.872 168.247 174.935 168.568C173.892 167.952 173.09 168.086 171.645 168.568C170.815 168.917 170.681 169.882 169.826 169.454C168.943 169.48 168.193 169.802 167.659 168.863C168.193 167.871 168.943 168.113 169.826 168.139C170.789 168.622 171.458 168.783 171.939 167.522C172.768 167.683 173.545 167.63 174.266 166.986C174.909 167.066 175.47 166.798 175.791 167.334V167.308ZM166.937 175.033C166.295 175.355 165.787 174.818 165.545 174.228C166.429 173.37 166.856 173.503 168.515 174.228C168.327 174.63 167.606 175.14 166.937 175.006V175.033ZM174.882 174.228C173.785 174.147 172.902 173.477 171.671 173.853C170.12 172.994 168.569 172.511 166.883 172.404C166.722 171.868 166.695 171.465 166.829 170.929C168.087 170.795 169.104 170.204 170.227 170.393C171.057 170.902 171.913 170.929 171.779 172.001C172.849 172.136 173.785 172.056 174.962 172.431C175.63 172.378 176.086 172.645 176.273 172.887C176.594 173.719 175.925 174.12 174.909 174.202L174.882 174.228ZM185.021 120.447C185.262 121.734 184.459 122.538 183.122 122.297L181.382 123.691C181.169 124.443 181.569 125.489 180.5 125.677C180.152 126.106 179.618 126.026 178.467 125.677C178.252 124.282 177.477 123.021 176.22 121.867C176.354 120.93 175.39 120.687 175.819 119.749C174.641 118.407 174.775 116.879 175.738 115.484C175.819 114.572 176.701 114.384 177.075 113.606C176.809 112.506 177.317 111.916 178.173 111.916C179.778 111.835 181.142 111.835 182.801 111.996C182.988 113.178 183.47 113.767 184.7 113.928C184.78 115.269 184.941 116.208 185.181 117.28C186.065 118.113 185.744 119.373 184.994 120.42L185.021 120.447ZM187.669 57.5443C186.252 56.9004 184.807 57.2756 183.309 57.1159C182.774 57.1159 182.48 57.0614 182.399 56.7661C182.132 56.5518 182.078 56.2565 182.238 55.8281C183.549 55.5062 184.726 55.6126 186.466 55.586C187.055 55.8547 187.108 56.5518 188.205 56.8472C188.74 57.6786 188.151 58.6977 187.642 57.5709L187.669 57.5443ZM186.358 51.6695C187.589 50.7848 188.9 50.7316 190.372 51.6695C189.221 53.1449 187.536 53.1728 186.358 51.6695ZM176.433 37.7488C178.494 37.4003 180.447 37.5334 182.48 37.6943C182.774 38.285 183.443 37.7488 184.539 38.6069C182.533 39.2774 180.527 39.0087 178.118 39.3306C177.557 39.1164 177.129 39.465 176.915 39.0087C176.594 38.7945 176.166 38.4726 176.433 37.7488ZM188.927 47.0293C188.232 46.5464 187.535 45.9025 186.626 45.7149C186.118 44.4538 185.075 44.4817 183.951 44.9101C182.667 45.071 181.703 44.7757 180.901 43.5957C179.242 43.7034 177.799 43.7567 176.594 42.8187C176.112 42.0139 175.256 42.4423 174.508 42.3079C173.732 41.9328 173.518 40.8326 174.293 40.2698C175.364 40.0822 176.006 39.4118 176.166 40.1089C177.049 40.4574 176.835 41.209 176.835 42.0405C178.279 42.3624 179.323 41.9594 180.821 42.147C181.248 42.4157 181.329 42.8453 181.382 43.1128C181.65 43.3815 182.051 43.2205 182.64 43.1673C184.299 43.0063 185.716 43.1673 186.653 44.5881C188.392 44.2662 190.425 44.6958 191.335 46.2789C190.746 47.298 190.077 47.1104 188.953 47.0559L188.927 47.0293ZM186.171 40.0823C185.342 39.4384 185.904 38.5258 187.108 39.0087C188.685 38.6069 190.13 38.3116 191.655 39.465C190.104 41.0215 188.498 40.0556 186.198 40.0823H186.171ZM194.945 30.1579C194.866 30.694 194.464 31.2302 193.207 31.0959C192.297 31.0959 191.87 30.9894 191.415 30.8816C191.014 30.6396 191.307 29.9158 190.96 28.8701C189.221 28.789 187.964 29.4329 186.706 28.8156C185.716 27.9043 184.593 27.609 182.935 27.2072C182.266 26.7509 183.095 26.2946 183.978 26.8042C185.502 25.9727 187.108 26.2414 188.338 27.4746C189.409 27.4214 190.317 27.4481 191.014 28.7624L194.144 28.6547C194.946 28.9234 195.08 29.5672 194.892 30.1579H194.945ZM194.25 22.0296L190.693 22.1639C189.275 22.2983 189.275 20.662 190.693 20.7963L194.063 20.8762C194.437 21.5467 194.732 22.0562 195.16 22.1373C195.775 22.5657 196.311 22.2983 196.899 21.9497C197.648 21.7888 198.691 21.6278 198.744 23.183C196.765 23.8269 195.427 22.9954 194.25 22.0562V22.0296ZM198.612 20.34C197.354 19.8837 196.203 19.8837 195.079 19.937C194.437 18.7836 193.394 18.8114 192.244 18.8381C191.388 18.8114 190.986 18.5428 191.175 17.4971C190.799 16.6111 189.97 16.6643 189.061 16.7721C188.205 16.6922 187.536 16.6377 187.134 15.5654C188.311 14.8404 189.596 14.9482 190.826 15.2967C191.228 16.2359 191.949 16.4768 192.913 16.3703C193.528 16.3703 193.956 16.4235 194.437 16.5034C194.813 16.7721 194.813 17.4426 194.973 18.2208L199.36 18.6226C200.11 18.757 200.431 19.16 201.152 20.2323C200.563 21.3325 199.413 21.2513 198.584 20.34H198.612Z" fill="#9F1B27"/>
</svg>
